<?xml version="1.0" encoding="utf-8"?>
<!-- Generator: Adobe Illustrator 16.0.0, SVG Export Plug-In . SVG Version: 6.00 Build 0)  -->
<!DOCTYPE svg PUBLIC "-//W3C//DTD SVG 1.1//EN" "http://www.w3.org/Graphics/SVG/1.1/DTD/svg11.dtd">
<svg version="1.1" id="Layer_1" xmlns="http://www.w3.org/2000/svg" xmlns:xlink="http://www.w3.org/1999/xlink" x="0px" y="0px"
	 width="513.333px" height="212.667px" viewBox="0 0 513.333 212.667" enable-background="new 0 0 513.333 212.667"
	 xml:space="preserve">
<g>
	<g>
		<g>
			<polygon points="485.303,46.234 486.475,47.486 490.498,45.621 492.896,47.326 494.521,45.994 492.15,44.236 495.214,41.891 
				493.163,40.479 490.605,42.744 486.688,40.479 485.303,41.944 488.899,44.129 			"/>
			<polygon points="485.197,33.953 488.34,35.95 484.983,38.268 486.236,39.627 490.285,37.389 493.482,39.707 494.788,38.188 
				491.911,35.817 494.92,33.339 492.976,32.141 490.232,34.565 486.609,32.594 			"/>
			<path d="M480.321,56.091l12.788,0.027l-3.89,2.744l-1.545-0.986l-2.211,1.252c0.133,0.08,0.452,0.266,0.905,0.586
				c0.453,0.293,1.066,0.746,1.785,1.226h-13.72v2.904l15.798-0.026v1.545c0,0.56-0.187,1.039-0.506,1.332
				c-0.347,0.319-1.013,0.613-1.813,0.586l-5.567-0.159l0.932,2.717l5.089,0.32c1.545,0.08,2.771-0.133,3.57-0.826
				c0.799-0.719,1.198-1.891,1.172-3.383v-2.131h11.535v-2.904l-12.787,0.027l-0.959-0.586l8.737-5.435l-2.717-1.944l-0.319,0.266
				h-16.305L480.321,56.091z"/>
			<path d="M474.114,48.258h-3.011v8.285h2.878v-5.381h31.143v5.381h2.878v-8.285h-2.131V32.594h-9.165v2.877h6.287v2.797h-6.287
				v2.877h6.287v1.918l-6.421-0.16l0.134-0.16v2.877h6.287v2.638h-26.002V46.1h5.755v-2.876h-5.755v-2.158h5.755v-2.877h-5.755
				v-2.185l5.995-1.545c0.266,0.079,0.559,0.132,0.799,0.106c0.24-0.053,0.107-0.399-0.426-1.039l-1.865-1.864l-4.449,1.491h-2.931
				V48.258z"/>
		</g>
		<g>
			<path d="M442.427,32.087v11.296h-16.571V46.5h16.331c-0.853,5.008-2.691,9.138-5.275,12.202
				c-2.584,3.063-6.767,6.154-12.335,9.084l2.371,2.611c4.582-2.424,8.472-5.328,11.536-8.632c3.09-3.33,5.195-7.086,6.154-11.109
				c1.465,4.37,3.596,8.206,6.366,11.482c2.771,3.25,5.941,5.941,9.404,7.939l2.691-2.798c-3.544-1.785-6.847-4.529-9.831-8.125
				c-3.036-3.623-5.222-7.886-6.554-12.654h15.692v-3.117h-16.411l0.053-11.296H442.427z"/>
		</g>
		<g>
			<g>
				<path d="M369.328,34.139c-0.319-0.293-0.612-0.586-0.905-0.826c-0.187-0.186-0.373-0.347-0.507-0.479l-1.998,1.678
					c0.533,0.399,1.198,0.986,1.652,1.438c0.266,0.267,0.586,0.586,0.853,0.879c0.213,0.24,0.399,0.453,0.559,0.613l1.865-1.625
					C370.393,35.285,369.861,34.672,369.328,34.139z"/>
				<polygon points="343.273,45.808 345.058,45.808 345.058,42.69 343.273,42.69 341.036,42.69 341.008,32.727 337.945,32.807 
					337.945,42.69 333.416,42.69 333.416,45.781 337.838,45.808 337.838,57.29 333.203,58.275 334.908,61.286 343.273,58.648 
					344.978,58.116 344.978,55.611 343.273,56.011 340.956,56.543 340.956,45.808 				"/>
				<path d="M370.447,62.485c-0.026,0.613-1.226,3.623-1.492,3.836c-0.16,0.106-0.347,0.027-0.532-0.16
					c-0.453-0.48-0.986-1.732-1.359-2.824c-0.213-0.612-0.719-1.918-1.039-2.984c0.88-1.278,1.705-2.744,2.398-4.235
					c0.079-0.133,0.133-0.267,0.213-0.426l2.983-6.341l-3.196-1.572l-0.24-0.133c-0.267,1.306-0.772,2.771-1.198,4.049
					c-0.4,1.279-1.226,2.824-2.025,4.183c-0.427-2.478-0.906-5.036-1.093-7.247c-0.186-2.237-0.399-4.501-0.372-6.473h4.929h2.797
					v-3.09h-2.797H363.6l0.266-6.954c0-0.133-2.61-0.026-2.983-0.026v6.874H346.87V52.92c0,3.224-0.56,6.607-1.359,9.191
					c-0.532,1.625-1.278,3.117-2.237,4.396c-0.533,0.772-1.172,1.465-1.812,2.024l1.812,1.279l1.119,0.719
					c1.651-1.865,3.037-4.103,3.862-6.261c0.826-2.211,1.492-4.715,1.599-7.166l0.267-6.793h5.354v5.887
					c0,0.906-0.399,2.105-0.772,2.638c-0.373,0.559-1.331,1.012-1.944,1.012h-1.492l1.412,2.824
					c1.599,0.027,2.983-0.399,3.916-1.119c0.933-0.692,1.972-1.865,1.972-3.357V47.193h-8.578v-5.115h10.815
					c0.054,2.211,0.32,5.115,0.56,8.339c0.24,3.224,1.013,6.287,1.679,8.738c-1.172,1.732-2.718,3.383-4.263,4.663
					c-1.571,1.305-3.41,2.61-5.115,3.543l2.505,2.131c1.385-0.799,2.797-1.838,4.129-2.931c1.332-1.118,2.584-2.424,3.677-3.835
					c0.452,1.385,1.039,2.637,1.385,3.41c0.373,0.799,0.986,1.785,1.279,2.211c0.532,0.799,1.226,1.439,1.785,1.732
					c0.213,0.106,0.372,0.186,0.559,0.186c0.666,0.106,1.332-0.32,1.812-1.492l1.731-4.183L370.447,62.485z"/>
			</g>
		</g>
		<g>
			<g>
				<g>
					<path d="M396.38,42.664v4.449h-13.747V67.36h3.117V50.23h10.63v20.406h3.09V50.23h10.923v10.363
						c0,0.826-0.134,1.706-0.533,2.344c-0.373,0.64-1.466,1.04-2.93,1.04h-3.091l1.252,3.197h2.185c2.078,0,3.677-0.719,4.796-1.199
						c1.118-0.479,1.411-1.972,1.411-4.422V47.113H399.47v-4.449H396.38z"/>
					<polygon points="399.523,41.358 417.319,41.358 417.319,38.268 399.47,38.268 396.38,38.268 378.93,38.268 378.93,41.358 					
						"/>
				</g>
			</g>
			<path d="M399.629,36.536l-2.504-4.529c-1.119,0.16-2.104,0.533-3.197,0.986c1.146,1.332,1.813,2.638,2.611,4.662L399.629,36.536z
				"/>
		</g>
		<g>
			<g>
				<path d="M297.131,36.164v0.399l0.213-0.239C297.264,36.27,297.211,36.217,297.131,36.164z"/>
				<path d="M297.131,36.563v-0.399c-0.72-0.64-1.519-1.279-2.425-1.945c-1.012-0.746-1.998-1.385-2.931-1.891l-2.345,2.557
					c0.96,0.4,2.078,1.065,3.064,1.678c1.012,0.64,1.998,1.492,2.771,2.317L297.131,36.563z"/>
				<path d="M321.001,64.909c-0.106,0.506-0.453,1.279-0.746,1.625c-0.319,0.346-1.093,0.746-1.731,0.746h-7.113h-2.664
					c-0.399,0-1.013-0.293-1.332-0.666c-0.32-0.346-0.746-1.092-0.746-1.945v-2.371h4.742h7.779V53
					c1.092,0.799,2.131,1.599,2.877,2.131c0.772,0.506,1.572,1.065,2.157,1.359l2.585-3.17c-1.253-0.48-2.585-1.199-3.942-2.158
					c-1.359-0.932-2.639-2.104-3.837-3.41h6.713v-3.117h-8.099v-4.422h7.033v-3.117h-7.006l-0.08-5.301l-2.983,0.026v5.275h-3.197
					h-2.61v-5.008h-3.117v5.008h-6.367v3.09l6.367,0.027v4.422h-6.741v3.117h6.074c-1.411,1.306-2.317,2.452-3.702,3.463
					c-1.173,0.879-2.584,1.705-3.863,2.371c-0.106,0.08-0.213,0.133-0.319,0.187c-0.08,0.054-0.187,0.107-0.267,0.133l0.267,0.266
					l0.319,0.267l2.291,1.865c0.453-0.24,1.093-0.667,1.651-1.039c0.587-0.4,1.386-1.066,2.158-1.679v13.134
					c0,0.772,0.4,1.731,0.985,2.291c0.587,0.533,1.492,1.066,2.479,1.386h4.396h8.445c1.119-0.319,1.998-0.799,2.584-1.386
					c0.586-0.612,1.172-1.252,1.412-1.838c0.213-0.453,0.532-1.199,0.666-1.785c0.159-0.586,0.319-1.252,0.319-1.785l-3.25-0.879
					L321.001,64.909z M316.099,59.208h-4.688h-4.742v-3.942h4.742h4.688V59.208z M308.8,40.186l2.61,0.027h3.144v4.422h-3.144h-2.61
					V40.186z M307.174,49.83c0.479-0.666,1.093-1.438,1.572-2.078h2.664l3.836-0.026c0.453,0.666,1.039,1.358,1.652,2.078
					c0.612,0.746,1.332,1.545,2.131,2.371h-7.619h-6.101C306.002,51.349,306.695,50.523,307.174,49.83z"/>
				<path d="M297.451,57.263l-0.319-0.347l-1.146-1.305c-1.279,2.158-2.718,4.396-4.103,6.5c-1.386,2.104-2.904,4.129-4.289,5.834
					l2.584,2.078c0.585,0.453,4.981-7.273,6.953-10.683c0.133-0.213,0.239-0.4,0.319-0.56c0.267-0.426,0.453-0.746,0.56-0.933
					L297.451,57.263z"/>
				<path d="M287.114,46.367c1.066,0.613,2.185,1.306,3.33,2.052c1.119,0.746,2.158,1.518,3.011,2.211l2.052-2.637
					c-0.985-0.853-2.078-1.732-3.145-2.425c-1.065-0.692-2.131-1.279-3.09-1.545L287.114,46.367z"/>
			</g>
		</g>
		<path d="M249.299,53.48h24.883v17.902h-3.117v-1.065h-18.648v1.065h-3.117V53.48z M248.926,52.095
			c5.568-3.09,10.63-8.099,10.63-7.859l-0.054,7.672l2.958-0.027l0.026-8.312l3.676,3.144c2.371,2.024,9.538,6.18,12.175,7.619
			l2.638-2.877c-2.584-0.585-5.222-1.519-7.806-2.904c-2.584-1.358-4.929-3.063-7.087-5.062h13.934v-3.144h-17.45V36.35
			c1.759-0.16,3.81-0.667,5.169-0.667c1.411,0,3.25-0.373,4.582-0.373c1.253,0,2.185-0.08,2.185-0.08s-0.692-0.986-0.826-1.146
			l-2.131-2.158c-3.597,0.799-7.593,1.438-12.015,1.838c-4.449,0.426-8.845,0.559-13.134,0.453l1.971,2.771
			c1.625,0,3.411-0.106,5.302-0.133c1.892-0.027,3.969-0.214,5.914-0.346l0.027,3.836h-17.369v3.144h14.997
			c-2.344,1.945-5.381,4.049-7.565,4.849c-2.211,0.826-5.301,2.211-7.805,2.717l2.69,3.277
			C245.677,53.773,247.008,53.134,248.926,52.095z M252.497,67.121h18.648v-3.917h-18.648V67.121z M252.497,60.327h18.648v-3.89
			h-18.648V60.327z M249.299,53.64l-0.027,17.689h3.09v-1.066h18.648v1.066h3.117V53.586V71.33h-3.117v-1.066h-18.648v1.066h-3.09
			L249.299,53.64z"/>
	</g>
	<g>
		<path d="M263.876,115.115c-2.077,0.489-4.317,0.896-6.476,0.896c-9.206,0-15.601-4.602-15.601-14.215
			c0-9.735,5.947-15.193,15.601-15.193c1.873,0,4.357,0.366,6.436,1.181l-0.407,4.807c-2.159-1.222-4.114-1.507-6.151-1.507
			c-5.865,0-9.531,4.48-9.531,10.305c0,5.785,3.584,10.143,9.654,10.143c2.24,0,4.888-0.488,6.231-1.182L263.876,115.115z"/>
		<path d="M267.698,94.544h5.459v20.978h-5.459V94.544z M267.698,85.501h5.459v5.214h-5.459V85.501z"/>
		<path d="M280.685,98.536h-4.033v-3.991h4.033v-4.195l5.458-1.751v5.946h4.847v3.991h-4.847v9.777c0,1.791,0.488,3.462,2.566,3.462
			c0.978,0,1.915-0.204,2.484-0.571l0.163,4.318c-1.141,0.326-2.403,0.488-4.033,0.488c-4.276,0-6.639-2.646-6.639-6.801V98.536z"/>
		<path d="M303.451,109.86h0.081l5.052-15.315h5.539l-7.861,20.814c-1.752,4.644-3.015,9.206-8.717,9.206
			c-1.304,0-2.607-0.204-3.87-0.57l0.367-4.033c0.692,0.245,1.466,0.367,2.811,0.367c2.199,0,3.544-1.507,3.544-3.747l-8.025-22.037
			h6.028L303.451,109.86z"/>
		<path d="M327.725,87.09h5.703v16.416c0,4.847,1.548,8.023,5.906,8.023c4.357,0,5.906-3.177,5.906-8.023V87.09h5.702v18.166
			c0,7.618-4.317,10.754-11.608,10.754s-11.609-3.136-11.609-10.754V87.09z"/>
		<path d="M355.591,94.544h5.174v2.852h0.081c1.711-2.403,4.032-3.341,6.884-3.341c4.97,0,7.129,3.504,7.129,8.229v13.238H369.4
			v-11.201c0-2.566-0.041-6.029-3.544-6.029c-3.95,0-4.806,4.277-4.806,6.965v10.266h-5.459V94.544z"/>
		<path d="M379.341,94.544h5.458v20.978h-5.458V94.544z M379.341,85.501h5.458v5.214h-5.458V85.501z"/>
		<path d="M386.96,94.544h5.865l5.215,15.274h0.08l5.052-15.274h5.458l-7.739,20.978h-6.15L386.96,94.544z"/>
		<path d="M427.495,114.34c-1.996,1.1-4.277,1.67-7.21,1.67c-6.924,0-10.957-3.991-10.957-10.875c0-6.068,3.218-11.08,9.735-11.08
			c7.78,0,9.979,5.337,9.979,12.668h-14.501c0.244,3.381,2.606,5.296,5.987,5.296c2.648,0,4.929-0.978,6.966-2.118V114.34z
			 M423.829,102.976c-0.163-2.647-1.385-4.929-4.44-4.929c-3.054,0-4.603,2.119-4.847,4.929H423.829z"/>
		<path d="M432.183,94.544h4.848v4.767h0.082c0.244-1.956,2.484-5.256,5.743-5.256c0.529,0,1.1,0,1.67,0.164v5.498
			c-0.489-0.285-1.467-0.447-2.444-0.447c-4.439,0-4.439,5.539-4.439,8.553v7.699h-5.459V94.544z"/>
		<path d="M460.367,98.944c-1.67-0.57-2.892-0.896-4.888-0.896c-1.466,0-3.218,0.529-3.218,2.322c0,3.34,9.49,1.223,9.49,8.799
			c0,4.887-4.357,6.842-8.798,6.842c-2.077,0-4.195-0.365-6.191-0.896l0.326-4.48c1.71,0.854,3.503,1.385,5.376,1.385
			c1.386,0,3.585-0.53,3.585-2.565c0-4.115-9.49-1.305-9.49-8.881c0-4.521,3.951-6.518,8.228-6.518c2.566,0,4.236,0.408,5.947,0.774
			L460.367,98.944z"/>
		<path d="M464.85,94.544h5.458v20.978h-5.458V94.544z M464.85,85.501h5.458v5.214h-5.458V85.501z"/>
		<path d="M476.583,98.536h-4.032v-3.991h4.032v-4.195l5.458-1.751v5.946h4.848v3.991h-4.848v9.777c0,1.791,0.489,3.462,2.566,3.462
			c0.978,0,1.914-0.204,2.484-0.571l0.163,4.318c-1.141,0.326-2.402,0.488-4.032,0.488c-4.277,0-6.64-2.646-6.64-6.801V98.536z"/>
		<path d="M499.349,109.86h0.081l5.052-15.315h5.54l-7.862,20.814c-1.752,4.644-3.015,9.206-8.717,9.206
			c-1.304,0-2.606-0.204-3.869-0.57l0.366-4.033c0.692,0.245,1.467,0.367,2.811,0.367c2.199,0,3.544-1.507,3.544-3.747
			l-8.024-22.037h6.028L499.349,109.86z"/>
	</g>
	<g>
		<path d="M252.309,140.934c6.231,0,10.997,4.195,10.997,11.119c0,6.029-4.032,10.836-10.997,10.836
			c-6.925,0-10.958-4.807-10.958-10.836C241.352,145.129,246.117,140.934,252.309,140.934z M252.309,158.653
			c4.195,0,5.295-3.748,5.295-7.25c0-3.219-1.711-6.232-5.295-6.232c-3.544,0-5.255,3.096-5.255,6.232
			C247.054,154.864,248.154,158.653,252.309,158.653z"/>
		<path d="M269.572,145.415h-4.032v-3.992h4.032v-2.933c0-4.195,2.362-7.128,6.681-7.128c1.385,0,2.933,0.203,3.991,0.447
			l-0.447,4.521c-0.489-0.285-1.182-0.732-2.363-0.732c-1.833,0-2.402,1.588-2.402,3.218v2.606h4.766v3.992h-4.766v16.984h-5.459
			V145.415z"/>
		<path d="M297.729,133.967h5.703v11.488h11.405v-11.488h5.702v28.432h-5.702v-12.463h-11.405v12.463h-5.703V133.967z"/>
		<path d="M336.258,140.934c6.232,0,10.998,4.195,10.998,11.119c0,6.029-4.033,10.836-10.998,10.836
			c-6.925,0-10.957-4.807-10.957-10.836C325.301,145.129,330.067,140.934,336.258,140.934z M336.258,158.653
			c4.195,0,5.295-3.748,5.295-7.25c0-3.219-1.71-6.232-5.295-6.232c-3.544,0-5.255,3.096-5.255,6.232
			C331.003,154.864,332.104,158.653,336.258,158.653z"/>
		<path d="M351.526,141.422h5.173v2.852h0.082c1.71-2.404,4.032-3.34,6.884-3.34c4.969,0,7.128,3.502,7.128,8.228v13.237h-5.458
			v-11.201c0-2.566-0.041-6.027-3.544-6.027c-3.951,0-4.807,4.275-4.807,6.965v10.264h-5.458V141.422z"/>
		<path d="M395.673,141.422v18.941c0,5.702-2.281,11.079-11.08,11.079c-2.158,0-4.644-0.325-7.25-1.427l0.448-4.643
			c1.67,0.896,4.398,1.833,6.109,1.833c6.029,0,6.314-4.522,6.314-8.147h-0.082c-1.019,1.793-3.462,3.34-6.518,3.34
			c-6.191,0-8.554-4.969-8.554-10.59c0-5.051,2.606-10.875,8.88-10.875c2.771,0,4.929,0.936,6.436,3.34h0.082v-2.852H395.673z
			 M390.215,151.686c0-3.584-1.386-6.516-4.563-6.516c-3.707,0-4.888,3.422-4.888,6.639c0,2.852,1.507,6.355,4.644,6.355
			C388.83,158.165,390.215,155.19,390.215,151.686z"/>
		<path d="M411.839,133.967h5.702v12.221l10.265-12.221h7.006l-11.69,13.402l12.18,15.029h-7.454l-10.224-13.197h-0.082v13.197
			h-5.702V133.967z"/>
		<path d="M448.13,140.934c6.232,0,10.998,4.195,10.998,11.119c0,6.029-4.032,10.836-10.998,10.836
			c-6.925,0-10.957-4.807-10.957-10.836C437.173,145.129,441.939,140.934,448.13,140.934z M448.13,158.653
			c4.195,0,5.295-3.748,5.295-7.25c0-3.219-1.71-6.232-5.295-6.232c-3.544,0-5.254,3.096-5.254,6.232
			C442.876,154.864,443.976,158.653,448.13,158.653z"/>
		<path d="M463.398,141.422h5.173v2.852h0.082c1.71-2.404,4.032-3.34,6.884-3.34c4.969,0,7.128,3.502,7.128,8.228v13.237h-5.458
			v-11.201c0-2.566-0.041-6.027-3.544-6.027c-3.951,0-4.807,4.275-4.807,6.965v10.264h-5.458V141.422z"/>
		<path d="M507.545,141.422v18.941c0,5.702-2.281,11.079-11.079,11.079c-2.159,0-4.645-0.325-7.251-1.427l0.448-4.643
			c1.67,0.896,4.399,1.833,6.109,1.833c6.029,0,6.313-4.522,6.313-8.147h-0.081c-1.019,1.793-3.463,3.34-6.518,3.34
			c-6.191,0-8.554-4.969-8.554-10.59c0-5.051,2.607-10.875,8.88-10.875c2.77,0,4.929,0.936,6.436,3.34h0.082v-2.852H507.545z
			 M502.086,151.686c0-3.584-1.384-6.516-4.562-6.516c-3.707,0-4.888,3.422-4.888,6.639c0,2.852,1.507,6.355,4.643,6.355
			C500.703,158.165,502.086,155.19,502.086,151.686z"/>
	</g>
	<g>
		<g>
			<path fill="#007DC5" d="M129.207,86.1l-19.92,19.934l-0.012-45.146c0-5.324-4.315-9.643-9.643-9.643l-13.453,0.02l19.253-19.278
				l37.089,0.026l-10.446,10.48c-1.744,1.734-2.827,4.132-2.843,6.782L129.207,86.1z"/>
		</g>
		<path fill="#007DC5" d="M75.513,101.737c0,2.383,1.929,4.313,4.312,4.313h15.368c2.383,0,4.313-1.93,4.313-4.313V65.271
			c0-2.381-1.932-4.313-4.313-4.313l-15.348,0.025c-2.38,0-4.311,1.93-4.311,4.313L75.513,101.737z"/>
		<path fill="#007DC5" d="M183.318,31.979h-25.994l-14.938,14.9c-1.744,1.745-2.822,4.155-2.822,6.818l0.043,52.432l20.223-20.019
			l0.02-26.649c0-2.662,1.08-5.072,2.823-6.818L183.318,31.979z"/>
		<path fill="#007DC5" d="M99.541,115.752H60.524c-5.325,0-9.642-4.318-9.642-9.643L50.741,60.92c0-5.324,4.314-9.641,9.639-9.641
			l7.207-0.016c2.65,0,5.048-1.068,6.791-2.797L118.8,3.874H60.507c-2.661,0-5.071,1.078-6.818,2.824L6.322,54.065
			c-1.747,1.746-2.825,4.155-2.825,6.819l-0.016,92.458c0,5.326,4.315,9.643,9.64,9.643l39.33,0.084L99.541,115.752z"/>
		<path fill="#008E7D" d="M118.893,162.481c-5.324,0-9.642-4.316-9.642-9.641l0.021-32.168l-47.058,46.932l-0.002,32.529
			c0,5.325,4.317,9.641,9.642,9.641h86.098c2.633,0,5.02-1.055,6.759-2.764l50.406-50.408c1.746-1.744,2.827-4.156,2.827-6.817
			l-0.007-138.271l-44.771,44.867c-1.745,1.746-2.824,4.155-2.824,6.819l-0.049,89.641c0,5.324-4.317,9.641-9.641,9.641
			C160.621,162.481,118.893,162.481,118.893,162.481z"/>
	</g>
</g>
</svg>
